<?xml version="1.0" encoding="UTF-8"?>
<svg width="20px" height="20px" viewBox="0 0 20 20" version="1.1" xmlns="http://www.w3.org/2000/svg" xmlns:xlink="http://www.w3.org/1999/xlink">
    <!-- Generator: sketchtool 52.5 (67469) - http://www.bohemiancoding.com/sketch -->
    <title>A55C5EB9-7CFA-4B86-8BD0-45EF0D2BBF6F</title>
    <desc>Created with sketchtool.</desc>
    <g id="Wireframes" stroke="none" stroke-width="1" fill="none" fill-rule="evenodd">
        <g id="transactions_unsetteled" transform="translate(-279.000000, -384.000000)" fill="#F47626">
            <g id="Group-9" transform="translate(279.000000, 384.000000)">
                <g id="Group" transform="translate(0.000000, 1.000000)">
                    <path d="M13.347368,4.33699628 L13.9895465,4.33699628 C14.2250855,4.33699628 14.418,4.14434944 14.418,3.90860967 C14.418,3.67307063 14.2250855,3.48042379 13.9895465,3.48042379 L13.347368,3.48042379 C13.1115613,3.48042379 12.9189145,3.67307063 12.9189145,3.90860967 C12.9189145,4.14434944 13.1115613,4.33699628 13.347368,4.33699628 Z" id="Fill-1"></path>
                    <path d="M19.6854424,0.525479554 C19.5353532,0.225702602 19.2358439,0.0544684015 18.9145874,0.0544684015 L0.927903346,0.0544684015 C0.60664684,0.0544684015 0.306869888,0.247115242 0.157115242,0.525479554 C0.0070260223,0.82532342 0.0499182156,1.16799257 0.242832714,1.42494424 L7.80129368,10.9320223 L7.80129368,17.1202751 C7.80129368,17.4415316 7.97272862,17.7198959 8.25115985,17.8696506 C8.37950186,17.9339554 8.50804461,17.9768476 8.65786617,17.9768476 C8.82903346,17.9768476 9.00053532,17.9339554 9.15028996,17.8268253 L11.5270929,16.1782528 C11.8697621,15.9213011 12.0624089,15.5357398 12.0624089,15.1290335 L12.0624089,10.9105428 L19.599658,1.42494424 C19.7925725,1.16799257 19.835197,0.82532342 19.6854424,0.525479554 Z M11.2915539,10.5038364 C11.2486617,10.5681413 11.2061041,10.6535911 11.2061041,10.7607881 L11.2061041,15.1076208 C11.2061041,15.2573755 11.1417993,15.3859851 11.0346022,15.4714349 L8.65786617,17.1202751 L8.65786617,10.7607881 C8.65786617,10.6107658 8.59356134,10.4824238 8.48663197,10.418119 L3.64737546,4.33699628 L11.4201636,4.33699628 C11.6557026,4.33699628 11.8482825,4.14434944 11.8482825,3.90860967 C11.8482825,3.67307063 11.6557026,3.48042379 11.4201636,3.48042379 L2.98344981,3.48042379 L0.927903346,0.911040892 L18.9145874,0.911040892 L11.2915539,10.5038364 Z" id="Fill-3"></path>
                </g>
            </g>
        </g>
    </g>
</svg>