<?xml version="1.0" encoding="UTF-8"?>
<svg width="30px" height="20px" viewBox="0 0 30 20" version="1.1" xmlns="http://www.w3.org/2000/svg" xmlns:xlink="http://www.w3.org/1999/xlink">
    <!-- Generator: sketchtool 52.5 (67469) - http://www.bohemiancoding.com/sketch -->
    <title>A23DD581-BBCA-4D0E-BF76-CA15C26C75EC</title>
    <desc>Created with sketchtool.</desc>
    <defs>
        <path d="M2,0 L24,0 C25.1045695,-2.02906125e-16 26,0.8954305 26,2 L26,14 C26,15.1045695 25.1045695,16 24,16 L2,16 C0.8954305,16 1.3527075e-16,15.1045695 0,14 L0,2 C-1.3527075e-16,0.8954305 0.8954305,2.02906125e-16 2,0 Z" id="path-1"></path>
    </defs>
    <g id="Wireframes" stroke="none" stroke-width="1" fill="none" fill-rule="evenodd">
        <g id="settelmet_details" transform="translate(-15.000000, -940.000000)">
            <g id="Group" transform="translate(10.000000, 892.000000)">
                <g id="Group-5" transform="translate(5.000000, 0.000000)">
                    <g id="rupay_icon" transform="translate(1.000000, 49.000000)">
                        <path d="M2,0 L26,0 C27.1045695,-2.02906125e-16 28,0.8954305 28,2 L28,16 C28,17.1045695 27.1045695,18 26,18 L2,18 C0.8954305,18 1.3527075e-16,17.1045695 0,16 L0,2 C-1.3527075e-16,0.8954305 0.8954305,2.02906125e-16 2,0 Z" id="Mask" stroke="#CCCCCC" stroke-width="0.5" fill="#E1E3E2"></path>
                        <g id="Free-Shipping-3" transform="translate(1.000000, 1.000000)">
                            <mask id="mask-2" fill="white">
                                <use xlink:href="#path-1"></use>
                            </mask>
                            <use id="Mask" fill="#E1E3E2" xlink:href="#path-1"></use>
                            <g id="RuPay-Logo_EPS" mask="url(#mask-2)">
                                <g transform="translate(1.000000, 5.000000)">
                                    <polyline id="Fill-1" fill="#128242" points="22.6454143 0.406779661 24 3.05011725 21.1525424 5.69491525 22.6454143 0.406779661"></polyline>
                                    <polyline id="Fill-2" fill="#E4712B" points="21.8330383 0.406779661 23.1864407 3.05011725 20.3389831 5.69491525 21.8330383 0.406779661"></polyline>
                                    <path d="M0,4.47457627 L1.29853546,0 L3.37481743,0 C4.02337757,0 4.45693031,0.0981794617 4.67744682,0.3007403 C4.89599218,0.501566704 4.93854889,0.829322123 4.80663321,1.2900508 C4.72677621,1.56141084 4.6054239,1.78930492 4.43893722,1.969213 C4.27325922,2.14959411 4.05557308,2.29218559 3.78699074,2.39704 C4.01468427,2.44938836 4.15979152,2.55334927 4.22458688,2.70929063 C4.28938224,2.86517943 4.28180088,3.09265304 4.20340961,3.39076541 L4.04541406,4.01563459 L4.04495917,4.03261102 C3.99942047,4.20757859 4.0128142,4.30139569 4.08695991,4.30891157 L4.03909626,4.47457627 L2.63477555,4.47457627 C2.63947599,4.36935396 2.64837145,4.27511639 2.65767126,4.1960157 C2.66788082,4.11523313 2.68031425,4.05263584 2.69279823,4.00948523 L2.82370305,3.56257947 C2.88981252,3.33027047 2.89405808,3.16817975 2.83264906,3.07488824 C2.77073461,2.97891624 2.6324506,2.93177117 2.41410741,2.93177117 L1.82382267,2.93177117 L1.37374255,4.47457627 L0,4.47457627 Z M2.11590722,1.92343447 L2.74809162,1.92343447 C2.96966952,1.92343447 3.1331742,1.89321327 3.23380412,1.83061598 C3.33504056,1.76754566 3.41039929,1.66100938 3.45447226,1.5067499 C3.50026368,1.3499676 3.48879056,1.24075083 3.42359085,1.17846889 C3.35788573,1.11545113 3.20155807,1.08475691 2.95526493,1.08475691 L2.35947107,1.08475691 L2.11590722,1.92343447 Z" id="Fill-3" fill="#293267"></path>
                                    <path d="M8.94915254,1.22033898 L7.91374547,4.7844565 L6.65546978,4.7844565 L6.81028066,4.26228886 C6.58850533,4.46993049 6.36219282,4.62770409 6.13363905,4.72840461 C5.90699855,4.83103404 5.66783979,4.88135593 5.41616279,4.88135593 C5.20810834,4.88135593 5.02940892,4.84533068 4.88558568,4.77396096 C4.73984917,4.70247777 4.63133943,4.59411834 4.55868983,4.45120871 C4.49380265,4.32599967 4.46592357,4.17168677 4.4769112,3.98713534 C4.48833616,3.80530708 4.55568326,3.49895058 4.68031914,3.06976781 L5.21685472,1.22033898 L6.59309718,1.22033898 L6.05754556,3.06120117 C5.97915616,3.3306247 5.96040611,3.52011187 5.99889017,3.62313843 C6.03874085,3.72712944 6.14457202,3.78091203 6.31687565,3.78091203 C6.49005392,3.78091203 6.63573576,3.72094558 6.75643577,3.59874337 C6.8785024,3.47733542 6.97290861,3.29658509 7.04348094,3.0558683 L7.57449537,1.22033898 L8.94915254,1.22033898" id="Fill-4" fill="#293267"></path>
                                    <path d="M8.54237288,4.47457627 L9.85500941,0 L11.6606646,0 C12.0591198,0 12.3675633,0.0221797285 12.5875805,0.0711117836 C12.8070352,0.11773126 12.978978,0.193678435 13.1066821,0.3007403 C13.2670154,0.440703847 13.3651589,0.613884429 13.4058687,0.821806244 C13.4438168,1.0296755 13.4213139,1.2717604 13.3381554,1.55604986 C13.1909146,2.0563026 12.933563,2.43966502 12.5657425,2.70755619 C12.1971548,2.97182083 11.7414705,3.10458385 11.19736,3.10458385 L10.3522729,3.10458385 L9.95105599,4.47457627 L8.54237288,4.47457627 Z M10.6724793,2.01183803 L11.1263735,2.01183803 C11.4199856,2.01183803 11.6263988,1.9777275 11.7470451,1.91145111 C11.8640603,1.84438633 11.9472189,1.72534111 11.9982085,1.55604986 C12.04884,1.38470883 12.0356963,1.26466499 11.9592375,1.19760022 C11.8852847,1.13095592 11.696925,1.0972133 11.3951301,1.0972133 L10.9420541,1.0972133 L10.6724793,2.01183803 Z" id="Fill-5" fill="#293267"></path>
                                    <path d="M14.7940256,4.75678087 L14.8070479,4.43237457 C14.599968,4.58435506 14.3899773,4.69935998 14.1787609,4.77102734 C13.9686169,4.8440541 13.7447357,4.88135593 13.5050746,4.88135593 C13.1408081,4.88135593 12.8870522,4.78434942 12.740028,4.59686151 C12.5949445,4.40882983 12.5711469,4.13907126 12.6700652,3.79492653 C12.764847,3.45518625 12.9332686,3.20532924 13.1764023,3.04530112 C13.4182083,2.88358736 13.821797,2.76771243 14.3880367,2.6937069 C14.4599401,2.6822336 14.556254,2.67309846 14.6767229,2.65885198 C15.0953767,2.61149062 15.3304928,2.50208642 15.3810499,2.3238424 C15.4076051,2.22640088 15.3915698,2.15429851 15.3296757,2.11009095 C15.2700285,2.06414336 15.1580368,2.04163176 14.9971222,2.04163176 C14.863631,2.04163176 14.7561333,2.06865655 14.667786,2.12526181 C14.579643,2.18230207 14.5139188,2.26549712 14.4693877,2.38262269 L13.2157245,2.38262269 C13.3289418,1.99796795 13.5602789,1.70749219 13.907642,1.51309854 C14.2532177,1.31549671 14.7095084,1.22033898 15.2745225,1.22033898 C15.5402792,1.22033898 15.7782551,1.24475374 15.9883991,1.29755268 C16.1990027,1.3481766 16.3530742,1.42027897 16.4530138,1.5075522 C16.5760362,1.6165214 16.6488078,1.74060708 16.669337,1.87801484 C16.6933389,2.01504197 16.6669879,2.21117565 16.5938077,2.46815589 L16.0547362,4.37250677 C16.0371688,4.43509337 16.0340026,4.49071986 16.0431948,4.54123502 C16.0547362,4.58957514 16.0761336,4.63084641 16.1142301,4.66026374 L16.0851726,4.75678087 L14.7940256,4.75678087 Z M15.1066626,3.23137527 C14.9701584,3.28526173 14.7925447,3.33670128 14.5721361,3.39319778 C14.2258454,3.48427732 14.0310728,3.60548109 13.9887376,3.75588467 C13.959629,3.85234743 13.9714257,3.92673358 14.0199401,3.98333884 C14.0670756,4.03711655 14.1497033,4.0642501 14.2660868,4.0642501 C14.4796523,4.0642501 14.6508826,4.01139677 14.7786542,3.9071039 C14.9067833,3.80134288 15.0024843,3.63549655 15.0694342,3.40662862 C15.0814351,3.35785348 15.0916998,3.32299857 15.0981343,3.29668066 L15.1066626,3.23137527 Z" id="Fill-6" fill="#293267"></path>
                                    <path d="M16.2711864,6.07403961 L16.5520573,5.04347756 L16.9142833,5.04347756 C17.0354107,5.04347756 17.1304423,5.01920296 17.1978694,4.97519832 C17.2666038,4.92925393 17.3131642,4.85188557 17.3398635,4.74802575 C17.3533389,4.70208136 17.361585,4.65380927 17.3672668,4.59905287 C17.3706357,4.54091576 17.3706357,4.4795642 17.3672668,4.40834763 L17.1740361,1.22033898 L18.4554027,1.22033898 L18.4355919,3.3328942 L19.5539972,1.22033898 L20.7457627,1.22033898 L18.7680514,4.68517782 C18.5434452,5.0725184 18.3803832,5.33859683 18.2767033,5.48380106 C18.174733,5.62717637 18.0777908,5.73868435 17.983614,5.81405754 C17.8615815,5.91858241 17.7252691,5.99257006 17.5784479,6.03557711 C17.4308726,6.0796926 17.2063166,6.10169492 16.9046293,6.10169492 C16.8177433,6.10169492 16.7178848,6.09981059 16.6099813,6.09426844 C16.5025303,6.09000099 16.3878892,6.08346125 16.2711864,6.07403961" id="Fill-7" fill="#293267"></path>
                                </g>
                            </g>
                        </g>
                    </g>
                </g>
            </g>
        </g>
    </g>
</svg>